<svg width="29" height="29" viewBox="0 0 29 29" fill="none" xmlns="http://www.w3.org/2000/svg">
<circle cx="14.5" cy="14.5" r="14.5" fill="#090909"/>
<g clip-path="url(#clip0)">
<path d="M14.5 18.3638C15.8478 18.3638 16.9404 17.2502 16.9404 15.8765C16.9404 14.5028 15.8478 13.3892 14.5 13.3892C13.1522 13.3892 12.0596 14.5028 12.0596 15.8765C12.0596 17.2502 13.1522 18.3638 14.5 18.3638Z" fill="white"/>
<path d="M18.0641 9.58157L17.9081 8.78677C17.8239 8.35767 17.4512 8.0462 17.0218 8.0462H11.9782C11.5489 8.0462 11.1761 8.35767 11.0919 8.78677L10.936 9.58157H18.0641Z" fill="white"/>
<path d="M20.857 10.5028C19.7958 10.5028 8.63962 10.5028 8.14299 10.5028C7.39543 10.5028 6.78723 11.1227 6.78723 11.8846V19.8686C6.78723 20.6305 7.39543 21.2504 8.14299 21.2504H20.857C21.6046 21.2504 22.2128 20.6305 22.2128 19.8686V11.8846C22.2128 11.1227 21.6046 10.5028 20.857 10.5028ZM10.6436 13.3893H9.19747C8.94789 13.3893 8.74555 13.1831 8.74555 12.9287C8.74555 12.6743 8.94789 12.4681 9.19747 12.4681H10.6436C10.8932 12.4681 11.0955 12.6743 11.0955 12.9287C11.0955 13.1831 10.8932 13.3893 10.6436 13.3893ZM14.5 19.2851C12.656 19.2851 11.1558 17.7561 11.1558 15.8766C11.1558 13.9971 12.656 12.4681 14.5 12.4681C16.344 12.4681 17.8442 13.9971 17.8442 15.8766C17.8442 17.7561 16.344 19.2851 14.5 19.2851Z" fill="white"/>
</g>
<defs>
<clipPath id="clip0">
<rect width="15.4255" height="15.7222" fill="white" transform="translate(6.78723 6.78723)"/>
</clipPath>
</defs>
</svg>
