<svg width="30" height="26" viewBox="0 0 30 26" fill="none" xmlns="http://www.w3.org/2000/svg">
<path fill-rule="evenodd" clip-rule="evenodd" d="M30 15.2193L27.3745 12.1753C28.5075 10.8628 29.1244 9.26393 29.1244 7.60985C29.1244 3.41389 25.1991 0 20.3742 0C15.5493 0 11.6239 3.41389 11.6239 7.60985V7.72615C5.73056 7.60743 0.875612 11.7398 0.875612 16.855C0.875612 18.8825 1.64797 20.8404 3.06382 22.4341L0 25.9863H11.376C17.9028 25.9863 22.8791 20.8327 21.7074 15.2193H30ZM13.3739 7.60985C13.3739 4.25346 16.5142 1.52261 20.3742 1.52261C24.2341 1.52261 27.3744 4.25346 27.3744 7.60985C27.3744 9.10096 26.7476 10.5357 25.6096 11.65L25.1345 12.1147L26.4988 13.6967H21.2285C19.9715 10.7405 17.0027 8.50031 13.3739 7.88984L13.3739 7.60985ZM6.12573 17.6176H16.6261V19.1403H6.12573V17.6176ZM11.3759 14.5725H6.12573V16.0951H11.3759V14.5725Z" fill="#0D0D0D"/>
</svg>
