<svg width="24" height="24" viewBox="0 0 25 24" fill="none" xmlns="http://www.w3.org/2000/svg">
<path d="M24.7711 10.879L15.0552 1.16261C13.646 -0.246097 11.354 -0.246097 9.9448 1.16261L0.228884 10.879C-0.0762947 11.1842 -0.0762947 11.6788 0.228884 11.984C0.533575 12.2892 1.0287 12.2892 1.33339 11.984L1.95302 11.3644V21.2961C1.95302 22.5366 2.95865 23.5422 4.19914 23.5422H8.10542C8.37511 23.5422 8.59371 23.3236 8.59371 23.0539V15.8273C8.59371 14.4789 9.68679 13.3859 11.0351 13.3859H13.9649C15.3132 13.3859 16.4063 14.4789 16.4063 15.8273V23.0539C16.4063 23.3236 16.6249 23.5422 16.8946 23.5422H20.8009C22.0414 23.5422 23.047 22.5366 23.047 21.2961V11.3644L23.6666 11.984C23.819 12.1363 24.0192 12.213 24.2189 12.213C24.4186 12.213 24.6188 12.1363 24.7711 11.984C25.0763 11.6788 25.0763 11.1842 24.7711 10.879Z" fill="black"/>
</svg>
