<svg width="24" height="24" viewBox="0 0 24 24" fill="none" xmlns="http://www.w3.org/2000/svg">
<path d="M22.2372 18.2046L18.435 14.4024C19.1263 13.0197 19.5872 11.4067 19.5872 9.7936C19.5872 4.37832 15.2089 0 9.7936 0C4.37832 0 0 4.37832 0 9.7936C0 15.2089 4.37832 19.5872 9.7936 19.5872C11.4067 19.5872 13.0197 19.1263 14.4024 18.435L18.2046 22.2372C19.3568 23.3894 21.0851 23.3894 22.2372 22.2372C23.2742 21.0851 23.2742 19.3568 22.2372 18.2046ZM9.7936 17.2828C5.64572 17.2828 2.30438 13.9415 2.30438 9.7936C2.30438 5.64572 5.64572 2.30438 9.7936 2.30438C13.9415 2.30438 17.2828 5.64572 17.2828 9.7936C17.2828 13.9415 13.9415 17.2828 9.7936 17.2828Z" fill="black"/>
</svg>
