<svg id="svg" xmlns="http://www.w3.org/2000/svg" xmlns:xlink="http://www.w3.org/1999/xlink" width="400" height="400" viewBox="0, 0, 400,400"><g id="svgg"><path id="path0" d="M113.712 36.190 C 96.041 44.908,87.397 82.216,100.781 92.003 C 110.245 98.923,107.073 103.125,92.385 103.125 C 79.028 103.125,78.485 102.754,77.542 92.969 L 76.563 82.813 51.563 82.813 L 26.563 82.813 25.583 92.969 C 24.781 101.288,23.267 103.125,17.213 103.125 C 0.435 103.125,-0.000 105.585,0.000 200.452 C 0.000 282.108,0.366 287.888,5.469 286.908 C 10.391 285.962,11.023 280.357,11.789 230.801 L 12.641 175.746 24.169 181.623 C 30.509 184.855,41.727 187.500,49.098 187.500 C 61.259 187.500,62.500 188.213,62.500 195.203 C 62.500 203.675,70.335 209.375,81.982 209.375 C 91.270 209.375,96.875 203.921,96.875 194.885 C 96.875 189.284,98.892 187.702,107.031 186.917 C 114.778 186.170,117.188 184.455,117.188 179.688 C 117.188 174.920,114.778 173.205,107.031 172.458 C 98.196 171.606,96.875 170.328,96.875 162.636 C 96.875 153.123,92.332 150.000,78.494 150.000 C 68.108 150.000,62.500 155.150,62.500 164.688 C 62.500 176.176,37.996 175.022,24.423 162.895 C 15.521 154.941,14.354 151.993,14.217 137.113 L 14.063 120.313 167.969 119.502 L 321.875 118.691 321.875 134.658 C 321.875 157.062,307.696 171.875,286.250 171.875 C 273.333 171.875,271.875 171.146,271.875 164.688 C 271.875 154.849,266.200 150.000,254.688 150.000 C 243.175 150.000,237.500 154.849,237.500 164.688 L 237.500 171.875 183.147 171.875 C 128.066 171.875,123.528 172.827,127.283 183.594 C 128.303 186.517,142.341 187.500,183.073 187.500 L 237.500 187.500 237.500 194.688 C 237.500 204.526,243.175 209.375,254.688 209.375 C 266.200 209.375,271.875 204.526,271.875 194.688 C 271.875 188.376,273.410 187.500,284.475 187.500 C 291.406 187.500,302.124 185.391,308.295 182.813 C 314.465 180.234,319.971 178.125,320.531 178.125 C 321.090 178.125,321.973 185.508,322.493 194.531 C 323.299 208.539,324.351 210.938,329.688 210.938 C 335.626 210.938,335.980 208.567,336.800 163.362 C 337.723 112.420,335.037 103.125,319.396 103.125 C 315.771 103.125,312.737 99.540,310.802 92.969 C 305.568 75.189,256.250 75.949,256.250 93.810 C 256.250 102.767,255.709 103.125,242.188 103.125 C 226.214 103.125,225.754 102.438,234.375 91.478 C 247.147 75.241,239.289 43.665,220.525 35.825 C 204.796 29.253,127.236 29.518,113.712 36.190 M217.767 53.670 C 222.584 58.195,225.000 64.023,225.000 71.118 C 225.000 85.108,217.757 83.087,215.625 68.502 L 214.063 57.813 167.188 57.813 L 120.313 57.813 119.343 69.531 C 118.159 83.836,109.375 86.273,109.375 72.296 C 109.375 50.436,117.368 46.875,166.432 46.875 C 207.412 46.875,211.047 47.356,217.767 53.670 M203.125 77.902 C 203.125 82.935,205.234 89.163,207.813 91.741 C 217.889 101.817,213.222 103.125,167.188 103.125 C 123.503 103.125,108.914 99.392,126.390 92.686 C 128.873 91.733,131.842 85.958,132.988 79.852 L 135.071 68.750 169.098 68.750 L 203.125 68.750 203.125 77.902 M65.625 100.000 C 65.625 101.719,59.297 103.125,51.563 103.125 C 43.828 103.125,37.500 101.719,37.500 100.000 C 37.500 98.281,43.828 96.875,51.563 96.875 C 59.297 96.875,65.625 98.281,65.625 100.000 M296.875 100.000 C 296.875 101.719,290.547 103.125,282.813 103.125 C 275.078 103.125,268.750 101.719,268.750 100.000 C 268.750 98.281,275.078 96.875,282.813 96.875 C 290.547 96.875,296.875 98.281,296.875 100.000 M80.367 186.676 C 79.649 191.426,79.042 188.281,79.019 179.688 C 78.995 171.094,79.583 167.207,80.325 171.051 C 81.067 174.894,81.086 181.926,80.367 186.676 M255.367 186.676 C 254.649 191.426,254.042 188.281,254.019 179.688 C 253.995 171.094,254.583 167.207,255.325 171.051 C 256.067 174.894,256.086 181.926,255.367 186.676 M148.958 214.583 C 147.813 215.729,146.875 221.354,146.875 227.083 C 146.875 236.785,146.167 237.500,136.563 237.500 C 122.673 237.500,118.750 242.318,118.750 259.375 C 118.750 276.377,122.676 281.250,136.374 281.250 C 145.817 281.250,146.563 282.038,147.468 292.969 L 148.438 304.688 167.908 305.616 L 187.379 306.545 189.401 293.898 C 191.180 282.777,192.432 281.250,199.774 281.250 C 211.676 281.250,215.625 275.800,215.625 259.375 C 215.625 242.950,211.676 237.500,199.774 237.500 C 192.449 237.500,191.179 235.966,189.425 225.000 L 187.426 212.500 169.234 212.500 C 159.228 212.500,150.104 213.438,148.958 214.583 M307.059 218.083 C 290.609 220.653,285.169 246.434,297.943 261.284 C 312.605 278.330,337.500 269.222,337.500 246.812 C 337.500 227.691,324.442 215.368,307.059 218.083 M366.624 222.117 C 350.922 227.925,344.023 256.122,355.715 266.703 C 364.856 274.976,382.723 273.398,390.398 263.641 C 406.960 242.586,390.239 213.381,366.624 222.117 M175.000 237.166 C 175.000 250.033,178.379 253.125,192.443 253.125 C 197.917 253.125,200.000 254.848,200.000 259.375 C 200.000 263.902,197.917 265.625,192.443 265.625 C 178.379 265.625,175.000 268.717,175.000 281.584 C 175.000 300.833,160.173 299.814,158.773 280.469 C 157.841 267.577,157.469 267.159,146.094 266.218 C 137.053 265.469,134.375 263.905,134.375 259.375 C 134.375 254.845,137.053 253.281,146.094 252.532 C 157.469 251.591,157.841 251.173,158.773 238.281 C 160.173 218.936,175.000 217.917,175.000 237.166 M318.125 235.000 C 322.739 239.614,323.046 252.033,318.613 254.772 C 313.755 257.775,306.250 250.219,306.250 242.326 C 306.250 231.408,311.373 228.248,318.125 235.000 M380.656 244.562 C 381.608 252.568,372.137 261.721,367.598 257.182 C 364.282 253.865,365.400 242.100,369.414 238.086 C 374.925 232.575,379.547 235.237,380.656 244.562 M251.792 266.674 C 241.884 276.581,241.529 287.721,250.781 298.369 C 266.067 315.961,296.875 308.661,296.875 287.447 C 296.875 265.211,267.014 251.452,251.792 266.674 M278.092 279.648 C 282.606 285.087,280.174 293.750,274.133 293.750 C 266.573 293.750,258.256 285.548,260.332 280.139 C 262.790 273.734,272.951 273.453,278.092 279.648 M321.781 282.031 C 297.437 294.329,285.418 323.424,293.516 350.452 C 299.407 370.115,308.939 371.799,335.926 357.944 C 347.964 351.764,365.139 345.558,374.094 344.153 C 405.067 339.292,410.100 319.972,386.719 295.694 C 366.464 274.662,345.217 270.192,321.781 282.031 M368.651 299.929 C 373.913 303.677,380.357 310.876,382.969 315.928 C 388.373 326.378,389.141 325.806,362.523 331.173 C 353.082 333.077,337.772 338.916,328.499 344.149 C 309.652 354.785,306.383 353.416,306.298 334.847 C 306.135 299.230,340.579 279.941,368.651 299.929 M0.000 316.964 C 0.000 349.285,-11.013 347.067,144.787 346.127 C 277.333 345.327,279.688 345.203,279.688 339.063 C 279.688 332.935,277.083 332.782,146.875 331.250 L 14.063 329.688 13.118 313.281 C 11.551 286.071,-0.000 289.315,0.000 316.964 " stroke="none" fill="#000000" fill-rule="evenodd"></path></g></svg>