<svg width="193" height="174" viewBox="0 0 193 174" fill="none" xmlns="http://www.w3.org/2000/svg">
<path fill-rule="evenodd" clip-rule="evenodd" d="M60.1216 21.5468C55.3029 18.2922 32.1916 20.9015 22.007 25.8502C-5.97878 39.4487 3.21561 82.6842 34.3488 83.8845C46.9495 84.37 70.5011 76.8281 70.7452 72.2292C70.8411 70.4276 68.1049 67.2653 63.4596 63.8089L59.6689 60.9885L59.8802 58.7852C60.1649 55.8109 57.4156 41.7082 56.0328 39.0532L55.004 37.0778L57.3291 33.3584C61.3281 26.9599 62.2653 22.9952 60.1216 21.5468ZM55.8201 27.35C55.2796 28.4525 53.843 30.9615 52.6269 32.9255C51.4111 34.8895 50.4493 36.6657 50.49 36.8729C50.5304 37.0802 51.2359 38.8215 52.0572 40.7422C54.0139 45.3189 55.7621 54.3061 55.5845 58.8784C55.4082 63.426 55.1617 62.9327 59.0221 65.7575C62.53 68.3239 65.6965 71.0084 65.7914 71.4957C65.8214 71.6497 64.8738 72.3089 63.6856 72.9608C54.1157 78.2123 36.6269 81.0132 28.011 78.6744C10.0131 73.7893 3.32156 48.3401 16.4935 34.8727C23.2623 27.9522 41.4429 22.9529 54.2444 24.4917C57.1175 24.8369 57.0821 24.7733 55.8201 27.35ZM38.2239 37.2981C37.1643 36.0111 34.2774 35.4129 32.9427 36.2032C29.9681 37.9642 29.701 42.2766 32.4583 44.0162C36.7387 46.7174 41.4555 41.2212 38.2239 37.2981ZM42.9108 62.3521C40.8289 60.1112 37.0979 60.7358 35.6936 63.5607C34.9109 65.1345 35.7856 68.0377 37.3636 69.1033C41.6284 71.9841 46.4303 66.14 42.9108 62.3521ZM30.4267 50.3787C29.4829 49.3007 27.991 49.7631 26.8265 51.495C25.9138 52.8524 25.6807 52.9594 24.2633 52.6704C20.871 51.9793 19.7081 47.7659 22.2299 45.3039C23.9163 43.6578 22.7594 41.4042 20.4579 41.8525C16.3118 42.6601 15.6422 51.4869 19.4904 54.5985L20.9741 55.7986L20.1118 57.8224C18.0124 62.7484 21.8258 70.3415 25.9918 69.53C28.4013 69.0607 28.2618 66.983 25.701 65.1942C23.2186 63.4603 22.6513 61.0011 24.2621 58.9551C25.6208 57.2298 26.7716 56.9507 28.1772 58.0058C29.3719 58.9025 31.0837 58.7604 31.7931 57.7048C32.3631 56.8577 31.3518 51.4362 30.4267 50.3787Z" fill="black"/>
<path fill-rule="evenodd" clip-rule="evenodd" d="M137.407 83.0765C142.725 83.8819 160.994 72.5262 167.536 64.3488C185.514 41.8784 160.668 9.41373 134.185 20.7723C123.467 25.3697 106.788 41.0205 108.411 44.9589C109.046 46.5019 112.587 48.057 117.839 49.0998L122.126 49.9506L122.824 51.875C123.767 54.4725 131.663 65.1611 133.872 66.8298L135.516 68.0714L135.05 72.1014C134.25 79.0339 135.042 82.7178 137.407 83.0765ZM138.696 76.5212C138.71 75.3856 138.914 72.7195 139.15 70.596C139.386 68.4728 139.484 66.6072 139.368 66.4503C139.252 66.2932 137.971 65.1188 136.522 63.8405C133.071 60.7944 128.042 53.9814 126.375 50.0915C124.717 46.223 125.119 46.5371 120.773 45.7102C116.823 44.9592 113.112 43.9741 112.84 43.6047C112.754 43.488 113.283 42.5611 114.017 41.5448C119.926 33.3586 133.422 24.0751 141.548 22.6079C158.521 19.5427 174.215 38.1439 168.56 54.6232C165.653 63.0914 152.452 74.4858 141.147 78.2832C138.61 79.1355 138.665 79.1746 138.696 76.5212ZM149.445 61.225C150.841 61.8794 153.49 61.2328 154.291 60.0427C156.077 57.3907 154.588 53.6825 151.594 53.3242C146.946 52.7673 145.188 59.2311 149.445 61.225ZM135.583 42.1579C138.211 43.2033 141.08 41.2002 141.131 38.2829C141.16 36.6576 139.277 34.5797 137.536 34.3162C132.829 33.6031 131.139 40.3912 135.583 42.1579ZM150.765 47.2028C151.981 47.7286 153.044 46.75 153.329 44.8409C153.552 43.3447 153.704 43.1628 155.003 42.8414C158.111 42.0718 160.755 45.1296 159.626 48.1874C158.871 50.232 160.732 51.6551 162.477 50.3668C165.619 48.0461 162.674 40.4071 158.224 39.3358L156.509 38.9224L156.425 36.8896C156.223 31.9413 150.023 27.1128 146.865 29.4447C145.039 30.7934 145.98 32.4735 148.83 32.9509C151.592 33.4137 153.042 35.2426 152.509 37.5913C152.059 39.5719 151.208 40.2619 149.615 39.9386C148.261 39.664 146.888 40.4623 146.714 41.6257C146.575 42.5597 149.572 46.6868 150.765 47.2028Z" fill="black"/>
<path fill-rule="evenodd" clip-rule="evenodd" d="M113.413 113.784C109.356 117.832 107.525 140.681 110.394 151.466C118.275 181.102 161.833 180.354 168.861 150.463C171.705 138.364 168.847 114.16 164.444 113.057C162.719 112.625 159.144 114.676 154.925 118.518L151.483 121.654L149.391 121.034C146.567 120.198 132.406 120.201 129.577 121.038L127.473 121.661L124.313 118.711C118.876 113.637 115.218 111.983 113.413 113.784ZM118.216 119.038C119.181 119.769 121.337 121.632 123.008 123.178C124.679 124.724 126.216 125.99 126.424 125.989C126.632 125.989 128.45 125.635 130.462 125.202C135.258 124.172 144.282 124.174 148.672 125.207C153.038 126.235 152.514 126.38 155.974 123.178C159.118 120.268 162.312 117.711 162.801 117.711C162.955 117.711 163.415 118.752 163.821 120.024C167.098 130.271 166.512 147.718 162.626 155.612C154.509 172.102 128.629 173.78 118.083 158.5C112.663 150.648 111.253 132.118 115.154 120.024C116.029 117.31 115.961 117.332 118.216 119.038ZM124.524 137.935C123.079 138.718 121.956 141.398 122.47 142.838C123.613 146.047 127.734 147.118 129.936 144.779C133.356 141.147 128.928 135.548 124.524 137.935ZM149.644 138.122C147.084 139.714 146.985 143.441 149.453 145.332C150.828 146.386 153.802 146.087 155.13 144.761C158.72 141.178 153.972 135.431 149.644 138.122ZM135.709 147.943C134.488 148.653 134.654 150.183 136.11 151.636C137.251 152.775 137.311 153.021 136.764 154.337C135.456 157.489 131.161 157.82 129.255 154.916C127.98 152.975 125.582 153.669 125.582 155.98C125.582 160.143 133.995 162.454 137.73 159.318L139.171 158.109L140.966 159.324C145.336 162.283 153.4 160.025 153.4 155.842C153.4 153.423 151.363 153.166 149.151 155.306C147.005 157.381 144.519 157.467 142.844 155.523C141.431 153.883 141.378 152.717 142.663 151.557C143.756 150.57 143.941 148.887 143.053 148.002C142.341 147.291 136.906 147.248 135.709 147.943Z" fill="black"/>
<path fill-rule="evenodd" clip-rule="evenodd" d="M3.4263 159.484C6.78124 164.058 28.8642 169.263 39.8451 168.068C70.0191 164.784 75.7953 122.054 47.5981 110.712C36.1857 106.122 12.076 105.302 10.3393 109.445C9.65869 111.068 11.1314 114.872 14.2608 119.574L16.8144 123.411L15.8957 125.365C14.6559 128.003 12.5425 141.859 12.9392 144.752L13.2343 146.904L9.87564 149.555C4.09868 154.116 1.93394 157.449 3.4263 159.484ZM9.28537 155.57C10.1443 154.735 12.2889 152.903 14.0517 151.5C15.8142 150.096 17.2817 148.781 17.3124 148.577C17.3435 148.374 17.2683 146.542 17.1458 144.508C16.8541 139.662 18.2044 130.833 19.8714 126.692C21.529 122.574 21.5932 123.108 18.977 119.244C16.5995 115.733 14.5743 112.227 14.6475 111.748C14.6706 111.597 15.7577 111.303 17.0633 111.095C27.5792 109.42 44.5617 112.599 51.7051 117.581C66.6271 127.987 64.4022 153.56 47.876 161.596C39.3836 165.725 21.0428 164.336 9.79229 158.713C7.26733 157.451 7.27885 157.521 9.28537 155.57ZM28.7172 152.221C29.267 153.751 31.7215 155.25 33.2072 154.963C36.5181 154.325 38.1818 150.452 36.2217 147.948C33.1791 144.059 27.0397 147.555 28.7172 152.221ZM32.6531 127.671C33.828 130.413 37.4599 131.067 39.6786 128.934C40.9151 127.746 41.0667 124.793 39.968 123.295C36.9987 119.247 30.6667 123.034 32.6531 127.671ZM40.1801 142.773C40.6923 144.073 42.2145 144.139 43.8536 142.932C45.1383 141.985 45.3875 141.964 46.5942 142.695C49.4822 144.446 49.1645 148.698 46.0387 150.129C43.9486 151.086 44.2698 153.536 46.531 153.882C50.6042 154.504 54.1223 146.617 51.6116 142.494L50.6438 140.904L52.1013 139.329C55.6495 135.496 54.6446 127.268 50.5519 126.643C48.1847 126.282 47.6295 128.236 49.3929 130.721C51.1024 133.13 50.8146 135.575 48.6623 136.924C46.8471 138.061 45.6984 137.939 44.7546 136.508C43.9523 135.292 42.3335 134.859 41.3348 135.595C40.5327 136.186 39.6784 141.497 40.1801 142.773Z" fill="black"/>
</svg>
