<svg width="194" height="183" viewBox="0 0 194 183" fill="none" xmlns="http://www.w3.org/2000/svg">
<path fill-rule="evenodd" clip-rule="evenodd" d="M141.191 118.618C127.487 123.505 121.556 135.998 124.454 153.867C126.034 163.606 129.131 167.143 135.728 166.745C137.504 166.638 137.798 166.78 139.121 168.383C149.527 180.995 174.052 176.355 180.276 160.595C181.435 157.662 181.523 157.563 183.849 156.581C189.406 154.235 190.505 150.28 188.213 140.879C183.991 123.559 174.333 114.602 160.268 114.963C157.23 115.041 144.246 117.529 141.191 118.618ZM161.857 118.609C174.294 118.941 185.904 133.08 185.815 147.786C185.791 151.77 182.23 155.234 182.09 151.408C181.711 140.987 176.02 125.761 172.983 127.043C171.516 127.662 171.666 128.705 173.8 132.736C177.571 139.863 179.213 150.218 177.627 156.886C173.979 172.225 151.298 177.342 141.146 165.115C136.937 160.047 133.746 147.731 134.637 139.998C135.106 135.934 134.642 134.794 132.775 135.413C129.713 136.428 130.971 155.234 134.533 161.694C135.492 163.434 135.162 163.647 132.805 162.805C130.213 161.88 129.474 160.34 128.244 153.306C125.646 138.451 129.505 128.365 139.752 123.228C142.862 121.668 157.998 118.506 161.857 118.609ZM141.58 141.553C139.817 144.245 142.503 148.145 145.668 147.487C147.342 147.139 149.019 144.734 148.691 143.154C147.957 139.626 143.5 138.622 141.58 141.553ZM162.499 137.114C160.616 139.624 162.353 143.238 165.414 143.179C168.067 143.128 169.608 141.19 169.084 138.561C168.442 135.342 164.482 134.471 162.499 137.114ZM153.382 150.537C151.821 151.579 152.848 154.264 155.193 155.273C157.344 156.199 156.351 160.512 153.666 161.901C150.574 163.501 147.77 161.933 146.567 157.93C145.366 153.934 142.859 153.502 142.822 157.284C142.742 165.478 153.665 169.269 158.298 162.656L159.059 161.57L160.19 162.262C164.475 164.888 170.418 162.915 172.462 158.19C174.261 154.03 172.124 147.939 169.532 149.84C168.637 150.498 168.589 150.789 169.027 152.897C169.743 156.339 169.095 157.958 166.395 159.476C162.709 161.547 158.692 156.922 161.05 153.322C163.252 149.96 161.61 148.514 156.794 149.572C155.183 149.925 153.647 150.36 153.382 150.537Z" fill="black"/>
<path fill-rule="evenodd" clip-rule="evenodd" d="M148.532 79.4397C163.311 82.9078 175.578 75.3118 183.147 58.0061C187.272 48.5748 186.558 43.7213 180.548 40.3379C178.931 39.4269 178.754 39.1367 178.501 36.983C176.513 20.0383 152.387 10.232 138.014 20.5268C135.34 22.4425 135.206 22.4795 132.611 22.0246C126.413 20.9374 123.211 23.7834 119.902 33.3217C113.805 50.8945 117.205 64.2109 129.74 71.8517C132.447 73.5019 145.237 78.6664 148.532 79.4397ZM130.409 67.7564C119.693 60.4286 117.514 41.4654 125.912 28.6229C128.187 25.1435 133.269 24.1217 131.227 27.5544C125.663 36.9051 122.039 53.4738 125.426 54.0681C127.062 54.355 127.521 53.3559 127.931 48.6145C128.657 40.2323 133.076 30.226 138.238 25.2778C150.115 13.8941 172.894 22.2394 174.877 38.7014C175.699 45.5257 171.529 58.1288 166.373 64.404C163.663 67.702 163.424 68.9637 165.412 69.4771C168.671 70.3193 178.207 53.1209 178.739 45.4425C178.882 43.3737 179.292 43.3741 180.882 45.4453C182.631 47.7235 182.408 49.4915 179.507 56.3537C173.38 70.8474 164.291 77.5064 152.401 76.2128C148.792 75.82 133.734 70.03 130.409 67.7564ZM161.165 59.113C164.235 57.7501 164.087 52.8118 160.939 51.5981C159.274 50.956 156.444 52.1149 155.838 53.6867C154.485 57.1945 157.825 60.596 161.165 59.113ZM140.315 51.1699C143.386 50.0348 143.908 45.8832 141.191 44.2035C138.836 42.7476 136.389 43.5752 135.361 46.1755C134.102 49.3609 137.082 52.3651 140.315 51.1699ZM155.903 44.5597C157.86 44.5298 158.479 41.5947 156.994 39.3829C155.632 37.3538 158.943 34.1351 162.082 34.4361C165.699 34.7828 167.269 37.7438 166.06 41.9341C164.852 46.117 166.805 47.9139 168.977 44.6186C173.683 37.4802 166.252 27.9774 158.448 31.1541L157.166 31.6759L156.567 30.4287C154.295 25.703 147.969 24.0698 143.504 27.0564C139.574 29.6852 138.001 36.2341 141.349 36.0336C142.506 35.9641 142.713 35.7355 143.521 33.6396C144.841 30.217 146.325 29.1642 149.551 29.3614C153.954 29.6305 154.859 35.9584 150.755 37.7805C146.923 39.4817 147.544 41.6789 152.364 43.4756C153.977 44.0769 155.569 44.5648 155.903 44.5597Z" fill="black"/>
<path fill-rule="evenodd" clip-rule="evenodd" d="M67.5698 26.7564C60.9985 11.6172 47.3199 5.718 28.9734 10.1109C18.9751 12.5051 15.6135 16.2191 16.7363 23.6309C17.0384 25.6262 16.9221 25.966 15.3902 27.558C3.33698 40.0831 10.8104 67.4355 27.9315 73.4587C31.1176 74.5796 31.2307 74.6731 32.5056 77.2334C35.5497 83.3487 39.7976 84.3384 49.3672 81.1627C66.9978 75.3119 75.3143 63.8607 73.4303 48.0292C73.0231 44.6096 69.0344 30.1311 67.5698 26.7564ZM69.7941 50.0503C70.7801 64.0912 57.2625 78.0685 41.8986 78.8948C37.7362 79.1188 33.7382 75.3228 37.7174 74.9246C48.5573 73.8405 63.8446 66.4655 62.181 63.1233C61.3774 61.5092 60.3046 61.7438 56.324 64.4028C49.287 69.1034 38.6518 71.6057 31.5206 70.2384C15.1145 67.0926 7.34117 41.8491 19.0182 29.6352C23.8588 24.5716 36.3759 20.1982 44.5452 20.7157C48.8387 20.9876 49.9796 20.3937 49.1325 18.3276C47.7444 14.94 28.2448 17.543 21.882 21.9651C20.1676 23.1565 19.9102 22.7976 20.5363 20.0878C21.225 17.1073 22.7533 16.1772 29.9651 14.3474C45.1972 10.4829 56.141 14.1971 62.6027 25.4243C64.5641 28.8324 69.4881 45.6939 69.7941 50.0503ZM43.6662 28.6403C40.6656 26.8217 36.8821 30.0951 37.9085 33.6216C38.4515 35.4871 41.1413 37.2261 42.7565 36.7559C46.3611 35.7068 46.9311 30.6191 43.6662 28.6403ZM50.5426 51.9406C47.7203 49.9761 44.1322 52.1616 44.5222 55.608C44.8602 58.5955 47.0488 60.2099 49.7367 59.4541C53.0294 58.5282 53.5141 54.0087 50.5426 51.9406ZM35.5501 42.5088C34.2958 40.8152 31.6021 42.1419 30.7994 44.8489C30.0632 47.3326 25.454 46.4843 23.7158 43.5454C21.7138 40.1604 23.0506 36.9012 27.1012 35.2927C31.1449 33.6871 31.3275 30.8344 27.3741 31.0311C18.8105 31.4575 16.0231 44.0084 23.4246 48.8145L24.6403 49.6038L24.038 50.9221C21.7564 55.9178 24.4526 62.4928 29.6054 64.4988C34.1411 66.2646 40.2714 63.4719 38.0087 60.6704C37.2266 59.7022 36.9168 59.6664 34.763 60.2933C31.2459 61.3169 29.486 60.6884 27.6123 57.7405C25.0548 53.7168 29.4538 48.8972 33.4649 51.3279C37.2103 53.598 38.5448 51.6561 36.9243 46.295C36.3821 44.501 35.7637 42.797 35.5501 42.5088Z" fill="black"/>
<path fill-rule="evenodd" clip-rule="evenodd" d="M13.0595 146.459C12.1076 161.233 21.3922 171.806 39.2574 176.294C48.9935 178.74 53.5464 177.271 55.8312 170.945C56.4465 169.243 56.697 169.025 58.7276 168.435C74.7042 163.79 80.2443 139.004 68.0247 126.841C65.7507 124.578 65.6935 124.455 65.7125 121.886C65.7585 115.749 62.5048 113.129 52.7972 111.485C34.9125 108.455 22.6534 113.873 17.3264 127.162C16.176 130.032 13.2718 143.166 13.0595 146.459ZM21.3732 127.145C26.6925 115.656 44.5796 110.502 58.2858 116.507C61.9993 118.134 63.8017 122.857 60.1708 121.447C50.28 117.604 33.7599 116.791 33.7347 120.144C33.7226 121.764 34.7575 122.044 39.384 121.674C47.5628 121.02 57.8995 123.656 63.4913 127.823C76.3556 137.409 72.0034 160.664 56.4904 165.227C50.0595 167.118 37.2654 165.141 30.3984 161.194C26.7892 159.119 25.5372 159.093 25.3641 161.087C25.0797 164.358 43.159 170.755 50.6298 170.028C52.6427 169.832 52.7083 170.227 50.9728 172.09C49.0638 174.14 47.3274 174.21 40.2595 172.527C25.3314 168.972 17.4608 161.305 16.7872 149.661C16.5828 146.126 19.7228 130.709 21.3732 127.145ZM34.6472 155.331C36.4532 158.064 41.1787 157.125 41.8384 153.902C42.1874 152.197 40.6163 149.662 39.0067 149.332C35.4149 148.597 32.6821 152.358 34.6472 155.331ZM38.9236 133.996C40.5106 136.767 44.5879 136.6 45.7651 133.716C46.7856 131.216 45.5949 128.996 42.9282 128.427C39.6613 127.729 37.2526 131.08 38.9236 133.996ZM47.7955 147.922C48.1399 149.8 51.0627 149.922 52.9505 148.137C54.6823 146.5 58.312 149.165 58.5289 152.233C58.7788 155.767 56.1843 157.755 51.959 157.268C47.7411 156.781 46.3279 158.949 49.8477 160.507C57.4723 163.881 65.4134 155.201 61.0994 148.208L60.3908 147.06L61.4937 146.282C65.6723 143.335 66.2227 136.987 62.63 133.174C59.4677 129.818 52.9155 129.362 53.6483 132.55C53.9017 133.651 54.155 133.814 56.3012 134.253C59.8059 134.97 61.0578 136.228 61.3885 139.362C61.8398 143.64 55.8997 145.531 53.4854 141.878C51.231 138.467 49.218 139.419 48.2674 144.344C47.9492 145.992 47.7368 147.603 47.7955 147.922Z" fill="black"/>
</svg>
