<svg width="329" height="336" viewBox="0 0 329 336" fill="none" xmlns="http://www.w3.org/2000/svg">
<g clip-path="url(#clip0)">
<path d="M237.796 187.968L257.185 188.299C261.516 188.373 265.685 186.639 268.691 183.514L270.176 181.971C279.276 172.511 286.083 161.08 290.07 148.563L290.171 148.246C292.529 140.843 289.107 132.825 282.135 129.421C266.571 121.82 251.005 114.22 235.441 106.619C230.914 104.409 227.379 100.577 225.532 95.8834C223.198 89.9476 220.863 84.0124 218.529 78.0766C216.752 73.5588 212.652 70.3758 207.843 69.7808C197.696 68.5245 187.55 67.2682 177.404 66.0118C170.983 65.2166 165.447 61.1115 162.811 55.1906L139.817 3.53742C137.692 -1.23606 130.902 -1.16136 128.883 3.65783C112.216 43.4407 106.226 62.6299 104.393 72.4609C104.093 74.0694 103.995 80.2042 100.582 87.2945L88.9392 111.491C70.981 148.807 60.7654 189.386 58.9109 230.774C58.5896 237.953 58.2677 245.13 57.9464 252.308C116.122 254.656 174.296 257.005 232.471 259.353C231.264 238.673 230.056 217.994 228.848 197.315C228.548 192.183 232.668 187.88 237.796 187.968Z" fill="#FED2A4"/>
<path d="M148.231 242.361C174.404 241.362 203.055 241.243 231.4 241.015C230.549 226.448 229.699 211.881 228.847 197.315C228.786 196.267 228.918 195.259 229.195 194.312C224.462 168.076 207.598 145.539 183.665 133.679C180.631 131.403 177.678 129.189 174.643 126.913L156.868 107.317C153.867 104.009 149.06 103.162 145.045 105.113C144.932 105.168 144.819 105.222 144.707 105.275C140.452 107.277 138.175 111.988 139.248 116.574C140.51 121.964 141.772 127.356 143.034 132.747C143.597 135.151 142.577 137.649 140.493 138.968C136.329 141.603 132.166 144.239 128.003 146.873C121.159 151.205 117.01 158.75 117.01 166.86C117.01 168.791 116.4 170.672 115.269 172.234L104.925 186.515C102.689 189.602 103.026 193.859 105.716 196.556L121.442 212.316C122.705 213.582 124.367 214.371 126.145 214.549C131.63 215.098 137.113 215.648 142.597 216.198C147.608 216.699 151.194 221.278 150.492 226.274C149.739 231.636 148.985 236.999 148.231 242.361Z" fill="#FFBD86"/>
<path d="M128.372 242.361C129.126 236.999 129.879 231.636 130.634 226.274C131.336 221.278 127.749 216.699 122.739 216.198C117.254 215.648 111.771 215.098 106.286 214.549C104.508 214.371 102.847 213.582 101.584 212.316L85.8575 196.556C83.1663 193.859 82.8309 189.602 85.0664 186.515L95.41 172.234C96.5417 170.672 97.1512 168.791 97.1512 166.86C97.1512 158.75 101.301 151.205 108.144 146.873C112.308 144.239 116.47 141.603 120.633 138.968C122.718 137.649 123.738 135.151 123.175 132.747C121.913 127.357 120.651 121.965 119.389 116.574C118.315 111.987 120.593 107.277 124.847 105.275C124.961 105.222 125.074 105.168 125.185 105.113C129.201 103.162 134.007 104.009 137.01 107.317L154.785 126.913C157.819 129.189 160.771 131.403 163.806 133.679C189.93 146.624 207.642 172.287 210.336 201.601L210.386 202.14C210.572 204.166 211.744 205.968 213.523 206.948C231.732 216.973 257.799 229.786 276.011 239.813C229.415 241.59 174.968 240.583 128.372 242.361Z" fill="#D78878"/>
<path d="M324.36 329.694H279.335C273.852 329.694 269.406 325.24 269.406 319.744V255.774H324.359C327.866 255.774 330.101 259.526 328.439 262.62L313.441 290.533C312.702 291.907 312.702 293.561 313.441 294.936L328.439 322.849C330.102 325.943 327.866 329.694 324.36 329.694Z" fill="#EFE2DD"/>
<path d="M49.6643 329.694H4.64013C1.13358 329.694 -1.10194 325.943 0.560403 322.849L15.5588 294.936C16.2971 293.562 16.2971 291.907 15.5588 290.533L0.560403 262.62C-1.10194 259.526 1.13422 255.774 4.64013 255.774H59.5934V319.744C59.594 325.24 55.148 329.694 49.6643 329.694Z" fill="#EFE2DD"/>
<path d="M305.081 289.892V255.774H269.407V319.744H275.293C291.718 319.744 305.081 306.353 305.081 289.892Z" fill="#E1D3CE"/>
<path d="M23.9188 255.774V289.892C23.9188 306.353 37.2818 319.744 53.7074 319.744H59.5934V255.774H23.9188Z" fill="#E1D3CE"/>
<path d="M275.292 299.843H53.7079C48.2243 299.843 43.7783 295.388 43.7783 289.892V245.824C43.7783 240.328 48.2235 235.873 53.7079 235.873H275.293C280.776 235.873 285.222 240.328 285.222 245.824V289.892C285.221 295.387 280.776 299.843 275.292 299.843Z" fill="#EFE2DD"/>
<path d="M196.765 95.8231C195.864 95.8231 194.951 95.5771 194.131 95.061C191.916 93.6674 189.489 92.7252 186.917 92.2613C184.313 91.7911 181.681 91.8316 179.092 92.382C176.411 92.954 173.774 91.2344 173.206 88.5464C172.638 85.8585 174.351 83.2171 177.033 82.6479C180.885 81.8295 184.803 81.7696 188.677 82.4683C192.505 83.1592 196.116 84.561 199.411 86.6345C201.734 88.0956 202.434 91.1668 200.976 93.4936C200.033 94.9988 198.418 95.8231 196.765 95.8231Z" fill="#C96E59"/>
<path d="M117.111 173.996C116.305 173.996 115.487 173.798 114.73 173.382C112.326 172.062 111.445 169.038 112.762 166.628C113.865 164.614 115.323 162.853 117.094 161.396C118.887 159.923 120.92 158.827 123.138 158.14C125.753 157.326 128.537 158.797 129.347 161.423C130.157 164.047 128.69 166.833 126.071 167.646C125.087 167.951 124.185 168.437 123.391 169.09C122.606 169.736 121.958 170.517 121.47 171.41C120.568 173.062 118.867 173.996 117.111 173.996Z" fill="#C96E59"/>
<path d="M282.135 129.421C276.385 126.613 270.635 123.805 264.884 120.997C263.338 124.788 262.471 129.019 262.471 133.486C262.471 148.244 271.9 160.46 284.191 162.569C286.552 158.097 288.525 153.413 290.069 148.563L290.17 148.246C292.529 140.843 289.107 132.825 282.135 129.421Z" fill="#C96E59"/>
<path d="M87.4385 286.456V255.108H106.165V259.475H92.1416V268.944H104.396V273.354H92.1416V286.456H87.4385ZM108.804 261.464C108.804 260.772 109.048 260.196 109.536 259.734C110.055 259.273 110.602 259.042 111.177 259.042C111.752 259.042 112.284 259.273 112.773 259.734C113.262 260.196 113.507 260.772 113.507 261.464C113.507 262.156 113.262 262.732 112.773 263.193C112.284 263.626 111.752 263.842 111.177 263.842C110.602 263.842 110.055 263.626 109.536 263.193C109.048 262.732 108.804 262.156 108.804 261.464ZM112.946 286.456H109.278V268.382H112.946V286.456ZM118.126 268.382H121.362C121.42 269.276 121.463 270.097 121.492 270.847C121.549 271.567 121.607 272.288 121.664 273.009C122.326 271.452 123.261 270.212 124.469 269.29C125.706 268.368 127.216 267.906 129 267.906C130.812 267.906 132.264 268.411 133.357 269.42C134.45 270.429 135.026 271.726 135.083 273.311V286.456H131.373V274.998C131.315 274.075 130.999 273.297 130.423 272.663C129.848 272 128.942 271.639 127.705 271.582C126.842 271.582 126.051 271.74 125.332 272.057C124.613 272.346 123.994 272.749 123.477 273.268C122.959 273.787 122.542 274.407 122.225 275.127C121.938 275.848 121.794 276.641 121.794 277.505V286.456H118.126V268.382ZM138.871 277.419C138.871 276.006 139.101 274.724 139.562 273.571C140.051 272.389 140.712 271.38 141.546 270.544C142.381 269.708 143.359 269.059 144.48 268.598C145.631 268.137 146.868 267.906 148.191 267.906C149.083 267.906 149.874 268.022 150.564 268.252C151.283 268.454 151.887 268.714 152.376 269.031C152.894 269.319 153.326 269.65 153.671 270.025C154.016 270.4 154.275 270.731 154.448 271.02V252.859H158.158V286.456H154.448V285.115C154.448 284.942 154.462 284.755 154.491 284.553C154.519 284.323 154.534 284.135 154.534 283.991C154.246 284.337 153.901 284.683 153.498 285.029C153.124 285.346 152.679 285.649 152.161 285.937C151.643 286.225 151.039 286.456 150.349 286.629C149.687 286.802 148.925 286.888 148.062 286.888C146.623 286.888 145.329 286.643 144.178 286.153C143.057 285.634 142.093 284.957 141.288 284.121C140.511 283.256 139.907 282.247 139.475 281.094C139.073 279.941 138.871 278.716 138.871 277.419ZM142.582 277.376C142.582 278.212 142.726 278.99 143.013 279.711C143.33 280.431 143.747 281.051 144.265 281.57C144.783 282.089 145.401 282.507 146.12 282.824C146.839 283.112 147.63 283.256 148.493 283.256C149.356 283.256 150.147 283.112 150.866 282.824C151.614 282.507 152.247 282.089 152.765 281.57C153.311 281.022 153.728 280.402 154.016 279.711C154.304 278.99 154.448 278.212 154.448 277.376C154.448 276.54 154.304 275.776 154.016 275.084C153.728 274.363 153.311 273.744 152.765 273.225C152.247 272.706 151.614 272.302 150.866 272.014C150.147 271.697 149.356 271.538 148.493 271.538C147.63 271.538 146.839 271.697 146.12 272.014C145.401 272.302 144.783 272.706 144.265 273.225C143.747 273.744 143.33 274.363 143.013 275.084C142.726 275.776 142.582 276.54 142.582 277.376ZM191.013 267.542H196.175C197.565 267.542 198.73 267.298 199.668 266.811C200.606 266.324 201.336 265.731 201.858 265.035C202.414 264.338 202.796 263.589 203.005 262.788C203.248 261.987 203.37 261.273 203.37 260.646C203.37 259.984 203.248 259.27 203.005 258.504C202.796 257.703 202.414 256.972 201.858 256.309C201.301 255.613 200.554 255.038 199.616 254.585C198.712 254.132 197.583 253.906 196.227 253.906H191.013V267.542ZM185.278 286.456V248.577H195.601C197.583 248.577 199.39 248.838 201.024 249.361C202.692 249.883 204.117 250.667 205.299 251.712C206.515 252.722 207.453 253.975 208.114 255.474C208.775 256.936 209.105 258.625 209.105 260.541C209.105 262.039 208.879 263.537 208.427 265.035C207.975 266.498 207.245 267.821 206.237 269.005C205.23 270.155 203.908 271.095 202.275 271.827C200.641 272.558 198.66 272.924 196.331 272.924H191.013V286.456H185.278ZM229.513 283.896C228.471 284.836 227.202 285.585 225.708 286.142C224.213 286.7 222.684 286.978 221.119 286.978C219.52 286.978 218.008 286.682 216.584 286.09C215.193 285.463 213.977 284.644 212.934 283.634C211.891 282.59 211.056 281.371 210.431 279.977C209.84 278.584 209.545 277.104 209.545 275.536C209.545 273.969 209.84 272.489 210.431 271.095C211.056 269.702 211.891 268.483 212.934 267.438C213.977 266.393 215.176 265.574 216.531 264.982C217.921 264.355 219.399 264.042 220.962 264.042C223.431 264.042 225.568 264.791 227.376 266.289C229.218 267.751 230.538 269.685 231.338 272.088C230.26 272.471 229.026 272.941 227.637 273.499C226.246 274.056 224.803 274.648 223.309 275.275C221.814 275.867 220.319 276.46 218.825 277.051C217.331 277.643 215.94 278.184 214.655 278.671C215.245 279.856 216.096 280.813 217.209 281.545C218.356 282.241 219.625 282.59 221.015 282.59C221.954 282.59 222.892 282.416 223.831 282.067C224.803 281.718 225.585 281.248 226.177 280.656L229.513 283.896ZM225.76 271.043C225.343 270.172 224.682 269.528 223.778 269.11C222.874 268.657 221.954 268.431 221.015 268.431C220.007 268.431 219.068 268.623 218.2 269.005C217.366 269.388 216.636 269.911 216.01 270.573C215.384 271.2 214.88 271.931 214.498 272.767C214.15 273.603 213.977 274.456 213.977 275.327C213.977 275.501 213.977 275.624 213.977 275.693C214.011 275.762 214.029 275.815 214.029 275.85C214.932 275.501 215.906 275.118 216.949 274.7C218.025 274.247 219.086 273.812 220.129 273.394C221.172 272.941 222.179 272.523 223.153 272.14C224.125 271.722 224.995 271.357 225.76 271.043ZM237.24 253.919H241.824V263.918H247.865V268.025H241.824V286.456H237.24V268.025H233.195V263.918H237.24V253.919Z" fill="black"/>
<path d="M185.702 245.547C172.028 262.617 174.358 287.248 190.908 300.56C207.457 313.873 231.958 310.826 245.632 293.756C259.306 276.685 256.975 252.055 240.426 238.742C223.877 225.43 199.376 228.476 185.702 245.547Z" fill="url(#paint0_linear)"/>
<path d="M261.145 301.845L252.433 311.778L278.938 335.123L287.65 325.19L261.145 301.845Z" fill="#753829"/>
<path d="M257.986 267.989C257.986 288.682 239.144 306.273 214.839 306.273C190.533 306.273 171.691 288.682 171.691 267.989C171.691 247.297 190.533 229.705 214.839 229.705C239.144 229.705 257.986 247.297 257.986 267.989Z" stroke="#A9A6A6" stroke-width="10"/>
<path d="M257.986 267.989C257.986 288.682 239.144 306.273 214.839 306.273C190.533 306.273 171.691 288.682 171.691 267.989C171.691 247.297 190.533 229.705 214.839 229.705C239.144 229.705 257.986 247.297 257.986 267.989Z" stroke="url(#paint1_linear)" stroke-width="10"/>
<path d="M250.531 295.464L246.301 300.132L254.931 307.987L259.162 303.32L250.531 295.464Z" fill="#A9A6A6"/>
<path d="M250.531 295.464L246.301 300.132L254.931 307.987L259.162 303.32L250.531 295.464Z" fill="url(#paint2_linear)"/>
<path d="M271.214 310.118L268.174 306.8L258.243 315.941L261.283 319.258L271.214 310.118Z" fill="#A9A6A6"/>
<path d="M271.214 310.118L268.174 306.8L258.243 315.941L261.283 319.258L271.214 310.118Z" fill="url(#paint3_linear)"/>
<path d="M288.49 323.467L286.721 321.861C286.011 321.217 284.86 321.217 284.151 321.861C283.441 322.505 283.441 323.549 284.151 324.193L285.663 325.566L277.954 332.564L264.848 320.667L272.558 313.67L278.672 319.22C279.093 319.602 282.563 322.753 284.151 324.193C285.407 325.008 285.438 323.876 285.727 323.614C286.03 323.338 287.617 323.141 286.721 321.861C284.931 320.236 281.647 317.256 281.241 316.888L273.846 310.174L273.842 310.171L268.703 305.506L268.699 305.502L264.163 301.385C263.545 300.824 262.724 300.515 261.85 300.515C260.975 300.515 260.155 300.824 259.537 301.385L259.28 301.618L252.777 295.714C257.425 290.444 260.782 284.197 262.411 277.373L263.055 274.074C263.215 273.026 263.335 271.965 263.412 270.894L263.52 267.596C263.511 266.528 263.462 265.468 263.373 264.415L262.958 261.116C261.689 253.533 258.294 246.44 252.951 240.314C252.575 239.883 248.878 236.357 247.45 234.969C246.25 234.173 246.344 235.561 246.031 235.786C245.692 236.029 244.173 236.157 245.006 237.41C247.128 239.164 249.747 241.954 250.101 242.361C256.505 249.704 259.889 258.547 259.889 267.933C259.889 290.672 239.51 309.17 214.461 309.17C189.412 309.17 169.033 290.672 169.033 267.933C169.033 245.196 189.412 226.698 214.461 226.698C225.785 226.698 236.633 230.502 245.006 237.41C245.748 238.023 246.898 237.973 247.573 237.299C248.248 236.625 248.193 235.582 247.45 234.969C238.407 227.508 226.691 223.399 214.461 223.399C187.408 223.399 165.399 243.378 165.399 267.933C165.399 289.614 181.002 306.97 203.074 311.478C203.074 311.478 205.739 312.09 208.04 312.248C210.585 312.424 212.331 312.424 212.331 312.424L214.34 312.446H215.965C217.144 312.413 218.312 312.345 219.468 312.238L223.102 311.776C231.308 310.448 238.81 307.26 245.067 302.713L251.571 308.616L251.314 308.849C250.696 309.41 250.355 310.156 250.355 310.949C250.355 311.742 250.696 312.487 251.314 313.048L255.851 317.167L255.853 317.17L260.993 321.835L260.997 321.838L275.641 335.13C276.258 335.691 277.08 336 277.954 336C278.827 336 279.649 335.691 280.267 335.131L288.49 327.667C289.108 327.105 289.448 326.36 289.448 325.567C289.448 324.773 289.108 324.027 288.49 323.467ZM250.397 298.219L256.71 303.95L254.14 306.282L247.826 300.552C248.714 299.804 249.572 299.026 250.397 298.219ZM262.279 318.335L259.709 316.003L267.418 309.005L269.987 311.338L262.279 318.335ZM261.85 303.951L264.848 306.673L257.139 313.67L254.141 310.949L261.85 303.951Z" fill="black"/>
<path d="M188.752 298.127C196.03 303.093 204.773 305.771 214.057 305.871C237.102 305.871 255.851 288.852 255.851 267.933C255.851 247.016 237.102 229.997 214.057 229.997C202.935 229.997 192.475 233.949 184.603 241.124C176.764 248.267 172.382 257.783 172.263 267.916C172.154 277.245 175.888 286.212 182.777 293.165C183.177 293.568 187.063 296.975 188.752 298.127C190.078 298.741 189.906 296.837 190.209 296.59C190.542 296.318 191.953 296.592 190.935 295.491C189.245 294.338 185.852 291.334 185.481 290.959C179.201 284.622 175.797 276.451 175.897 267.951C176.006 258.683 180.012 249.982 187.178 243.451C194.363 236.903 203.909 233.296 214.057 233.296C235.098 233.296 252.216 248.835 252.216 267.933C252.216 287.033 235.098 302.572 214.078 302.572C205.594 302.48 197.591 300.032 190.935 295.491C190.133 294.943 188.994 295.09 188.391 295.818C187.788 296.547 187.95 297.581 188.752 298.127Z" fill="black"/>
</g>
<defs>
<linearGradient id="paint0_linear" x1="258.402" y1="301.4" x2="185.325" y2="233.481" gradientUnits="userSpaceOnUse">
<stop stop-color="#FFFEFE"/>
<stop offset="0.297284" stop-color="#E5E4E4" stop-opacity="0.557292"/>
<stop offset="0.9999" stop-color="#C8C8C8" stop-opacity="0.0736915"/>
<stop offset="1" stop-color="#C4C4C4" stop-opacity="0"/>
</linearGradient>
<linearGradient id="paint1_linear" x1="391.474" y1="143.228" x2="83.1689" y2="359.71" gradientUnits="userSpaceOnUse">
<stop stop-color="white" stop-opacity="0"/>
<stop offset="1"/>
</linearGradient>
<linearGradient id="paint2_linear" x1="248.416" y1="297.798" x2="257.063" y2="305.635" gradientUnits="userSpaceOnUse">
<stop stop-color="#433232" stop-opacity="0"/>
<stop offset="1" stop-color="#1C1A1A"/>
</linearGradient>
<linearGradient id="paint3_linear" x1="269.694" y1="308.459" x2="259.744" y2="317.578" gradientUnits="userSpaceOnUse">
<stop stop-color="#433232" stop-opacity="0"/>
<stop offset="1" stop-color="#1C1A1A"/>
</linearGradient>
<clipPath id="clip0">
<rect width="329" height="336" fill="white"/>
</clipPath>
</defs>
</svg>
